/* XPM */
static char *eaef35d179764cdad6667a15b788c785RZ19qVIHQYSMH6Mp[] = {
/* columns rows colors chars-per-pixel */
"64 64 29 1 ",
"  c #181818",
". c #292008",
"X c #181008",
"o c #102008",
"O c #101010",
"+ c gray16",
"@ c #312910",
"# c #313131",
"$ c #4A3118",
"% c black",
"& c #392910",
"* c #393939",
"= c #414141",
"- c #523929",
"; c #5A4A31",
": c #5A5A5A",
"> c #394129",
", c #735A4A",
"< c #626262",
"1 c gray29",
"2 c #4A3920",
"3 c #D5D5D5",
"4 c gray61",
"5 c #6A6A6A",
"6 c #EEEEEE",
"7 c #8B8B8B",
"8 c gray3",
"9 c #836A52",
"0 c white",
/* pixels */
"  .XXXX XXXX X XXX X X. .X XX.X   .XXXX XX  X X oX   XXXXo  X  O",
" +++@@+++.+@@+.+.+@@+++.+@@+.+.+.+@@+++.+@@+.+.+@@+++.+@@+.+..@ ",
"X@++@+@++@.@@..@@+@+@++@.@@..@@+.+@+@++@.@@..@@+@+@++@.@@..@@@+ ",
"X++@.@.@#+@+.+..o@.@.@#+@+.+..o+.@.@.@#+@+.+..o@.@.@#+@+.+..o+oX",
"X+##$.+ %% +.@++&@. %% @@.@@@#+ %% +$@++#@+ %% +..@..+ %% @@$++X",
"o@#+$++% +%+.@+@@@@%+ %+@+++@.+% +%+#++@$@+%+ %@.@..++% +%@@$@+ ",
"X#++++@ #* @++++&+@ #* ..+++.++ #* ++@+#+++ #* @@@.+@+ #* +.+@@X",
"X##@@@@#++#+@@@@&+#+@#+@.@$.++@#+o#o+@+#+.#.@@+++@@+#.+@@#@@@@. ",
"X#@@#@@@.#+.+..++@#+@+@@+.@@++#.+@+@##++@o#+@#++#.+@+++@...@#++ ",
"X#@@.@@++..+@o@o+##+.@++@#+@#@@@@@@.#.@@@@@....++@++++++@+@.+.@X",
"o@@@@.@o+@..+.+.+@++.++@o@+@@+@@.@@@$@@.o...+.@++.++@++@@@+@+++ ",
"X+@@+.####$#&$&#$###$$#$&#$$##$$$#&$&#$$#&#$&$#$$##$$$*####@+@@o",
"X+@@$+#**==--=-==------=-=--;=---=--;-=---===---=--==-==**#+@@@ ",
"X@@@$+#*XOX .XXX XXX X XX  X.  o X  X X  X.XX    X.XX  XX*#@+@@X",
" +@@@.#=X@@@+@@@@@.  ++@++#+@+@.+@+$++$#+@$  ++#+@$+#++@O=#@++@ ",
"X@#@@#$-O@@.@@@#+@ %% +@++.+#+$@++#@++.#+@ %% +@@@+@@@$@X-#+.@@ ",
" #$@@@$=O+@+++@+o@%+ %@@+@@.++#++@$@++.+o@%+ %@@++.@@@$+X-#@+++ ",
" #+@+@$=O..+++.o@$ :* +++#+++++@+#++++@o@$ :* ++++.++.++X=*+@.+ ",
"X+&@++#=O@.@$>*>>>@*#+>>*******>***>*>>>>>@*#+>>*>>*>@@@X-&#@.@o",
"X+#@@+$=O@@.@>>===>===;>==>===;>===>==>>==>>>>>=>>=>>@&@X=&++..X",
"X$#@++#=O+++@>=,<<,,<<<<<,,,<<<<<,<,<<,,<,,,,,<<<:1=2+$+X-$@++. ",
"X$+@++#=O$+@.>><33415<4333415<43334<5143334<514333<=*.+$X-&#.@+ ",
"X++@$+#;O$@++>><667#1*76667#=*76667*1#76667*1#7666<=*++$X-&+++@ ",
"o+#@+@*=O2+.+>=,667#1*76667#==76667*1#76667*1#7666,;>++2X=#@o.#X",
"X##@@@$=O2+++>><667#1*76667#=*76667*1#76667*1#7666<=>++2X=$@+@. ",
"X#+@#@$-X$@++>><667#1*76667#1=76667-;#76667*1+7666<=*&+$X-&@#@@X",
"o@#@@@$=O2@++>><667#1*76667#1=76667*;#76667*1#7666<=>@@2X=$@@@+ ",
"X+#+++$;O$+&+>>,667$;*76667#1=76667*1#76667*1#7666,;*&@$X=#.+++X",
"X+++$+#-O*@@@>><667#;*76667$;=76667*1#76667*1#7666<=>@+*X-$@$+oX",
"X@+#$.#*O*@++*=,667#1*76667#;*76667;;$76667*1#7666,=*+.*X-$@$@+ ",
" ++$@.$*O*.@+>=:667#1*76667*=-76667;1*76667-;#7666:=*#+*X-$@@.@ ",
"X@#+@@$=X-++.*>,667$;-76667#1*76667*;#76667*;#7666,=*++-X-*@@@@ ",
" #$@@@$=82+#+*=<667$1=76667$;*76667*=#76667*1#7666<>>.+2X>#+.++ ",
" #++++$-X$+++2><667#;*76667#1*76667*=*76667*1#7666<=*@+$X-$++@. ",
"X+$$++$>O$@.+>>,667#=*76667$1*76667*;$76667;;$7666,=*.+$X=#+@.@X",
"X+#+@+$=O$+@+>><667#==76667#1*76667*;$76667;1*7666<>*@.$X-&+@@+O",
"X$#+++#=X2+.+>><667#;;76667#1*76667-;$76667*;#7666<=>++2X-&+@+@ ",
"X$@+++#=O$+@.>><667#;;76667$;*76667*=#76667*=#7666<=*.+$X-#@.@.X",
"X+@+$+#;O$@++>><667$;-76667$;*76667*=#76667*=*7666<=*++$X-#@+@@X",
"o+@#+@*-O2+.+>=,667#=*76667$;-76667=1*76667*;$7666,;>++2X-#+.@@ ",
"X#@@@@$=O2+++>><667#=*76667#1*76667-1#76667*;$7666<=>++2X=&++++ ",
"X#@@.@$=X$@++>><667*1=76667#1*76667-=#76667-;$7666<=*&+$X=$.+.@X",
"o@@@@.$>O2@++>><667$1*76667#1=76667-=*76667*=#7666<=>@@2X-#@+++ ",
"X+@@+.$-O$+&+>>,667$=*76667#1*76667*;#76667*=#7666,;*&@$X=#@+@@o",
"X+$@$+#-O*@@@>><667$==76667#;=76667*1#76667=1*7666<=>@+*X;#+@@@ ",
"X@$@$+&-X$+&@>><33419<4333415<43334<5143334<514333<=*++$X-$@+@@X",
" +$@@.&-O&+++>>:,<<,,<<<<<,,,<<<<<,:,<<<<<,,,,,<<<:=*&+$X=$@++@ ",
"X@*@@#$-O+@@.>>>===>===;>==>===;>===>==>>==>>>>>=>>=>@@&X-#+.@@ ",
" #2@@@$=O+@.@$>*>>>@*#+>>***+*+*>***>*>>>>>@*#*>>*>>*@@@X-#@+++ ",
" ##@+@$=8@..+++.o@$ :* +++#+++++@+#++++@o@$ :* ++++.++.+X=*+@.+ ",
"X+$@++#=X#+@+++@+o@%+ %@@+@@.++#++@$@++.+o@%+ %@@++.@@@$X-&#@.@o",
"X+*@@+$=X#@@.@@@#+@ %% +@++.+#+$@++#@++.#+@ %% +@@@+@@@$X=&++..X",
"X$*@++#=O@.@@+@@@@@.  ++@++#+@+@.+@+$++$#+@$  ++#+@$+#+@X=#@++. ",
"X$#@++#*XXXX .XXX XXX X XX  X.  o X  X X  X.XX    X.XX OX*##.@+ ",
"X++@$+#**=====--*=-*-=-=-=>=-----=;==-=;===--=---=*=-===**#+++@ ",
"o+#@+@####$$*###$$$#$#$#&#$#$$#$#$*###&##2$$$#*#&&$#$#$####@o.#X",
"X##@#@@@.#+.+..++@#+@+@@+.@@++#.+@+@##++@o#+@#++#.+@+++@...@#@. ",
"X#+@@@@#++#+@@@@&+#+@#+@.@$.++@#+o#o+@+#+.#.@@+++@@+#.+@@#@@@@@X",
"o@#+++@ #* @++++&+@ #* ..+++.++ #* ++@+#+++ #* @@@.+@+ #* +.+@+ ",
"X+#+$++% +%+.@+@@@@%+ %+@+++@.+% +%+#++@$@+%+ %@.@..++% +%@@$++X",
"X++#$.+ %% +.@++&@. %% @@.@@@#+ %% +$@++#@+ %% +..@..+ %% @@$+oX",
"X@+$@.@+++#+.@+@&@@@o@.++.+@@.@+.@@#@.+@.+++.@++.@+@@@+++@@@@@+ ",
" ++$@.@+++#+.@+@&@@@o@.++.+@@.@+.@@#@.+@.+++.@++.@+@@@+++@@@@.@ ",
"XX  XXX  X  XX  . XXX   X   XXX XX  XXX  X  XX  XXXXXX  XX XXXX "
};
