/* XPM */
static char *d11e24e86abf41e7a1a72744d5bbd063mYUw4IayGiqPqH1E[] = {
/* columns rows colors chars-per-pixel */
"64 64 147 2 ",
"   c #353535",
".  c #3D3D3D",
"X  c #4F3A1F",
"o  c #523C1E",
"O  c #593F1E",
"+  c #4E3A24",
"@  c #4C3A28",
"#  c #533C24",
"$  c #583F22",
"%  c #533B29",
"&  c #453B36",
"*  c #453E3B",
"=  c #59401F",
"-  c #4D422E",
";  c #554126",
":  c #5A4221",
">  c #54432B",
",  c #5C4629",
"<  c #414037",
"1  c #464139",
"2  c #514732",
"3  c #5D4B35",
"4  c #594D3C",
"5  c #5F503E",
"6  c #604827",
"7  c #634C2B",
"8  c #684F2E",
"9  c #69502F",
"0  c #6B5434",
"q  c #6E5837",
"w  c #6F5938",
"e  c #745C3B",
"r  c #77603F",
"t  c #79603F",
"y  c #434343",
"u  c #4B4743",
"i  c #4E4B47",
"p  c #4C4B4B",
"a  c #554F47",
"s  c #5F4F40",
"d  c #514E4D",
"f  c #52504F",
"g  c #5C554B",
"h  c #545454",
"j  c #5B5651",
"k  c #5A5856",
"l  c #5B5B5B",
"z  c #635543",
"x  c #685742",
"c  c #675946",
"v  c #6A5A45",
"b  c #64564A",
"n  c #625A4F",
"m  c #6A5A4C",
"M  c #665E52",
"N  c #7D6445",
"B  c #63615E",
"V  c #736352",
"C  c #666666",
"Z  c #636363",
"A  c #696764",
"S  c #696766",
"D  c #686662",
"F  c #6B6966",
"G  c #6B6967",
"H  c #6C6966",
"J  c #6D6A67",
"K  c #696865",
"L  c #676768",
"P  c #676768",
"I  c #676868",
"U  c #686868",
"Y  c DimGray",
"T  c #69696A",
"R  c #696A6A",
"E  c #6A6A6A",
"W  c gray42",
"Q  c #6D6B68",
"!  c #6E6C69",
"~  c #6F6C69",
"^  c #6F6D6A",
"/  c #6C6C6C",
"(  c #6D6D6D",
")  c gray43",
"_  c #6E6E6F",
"`  c #6F6F6F",
"'  c #6A6A6A",
"]  c #706D6A",
"[  c #706E6B",
"{  c #716F6B",
"}  c #72706D",
"|  c #73716D",
" . c #73716E",
".. c #74726F",
"X. c #75726F",
"o. c #75736F",
"O. c #6F6F70",
"+. c #6F7070",
"@. c gray44",
"#. c #717171",
"$. c #717172",
"%. c #717272",
"&. c #727272",
"*. c #727273",
"=. c gray45",
"-. c #757370",
";. c #767370",
":. c #747474",
">. c #747475",
",. c #747575",
"<. c gray46",
"1. c #767676",
"2. c #777777",
"3. c #727373",
"4. c gray47",
"5. c #797979",
"6. c #797A7A",
"7. c gray48",
"8. c #7B7B7B",
"9. c #7B7C7C",
"0. c #7C7C7C",
"q. c gray49",
"w. c #7C7C7D",
"e. c #7E7E7E",
"r. c gray50",
"t. c #7D7D7D",
"y. c #806747",
"u. c #816847",
"i. c #806749",
"p. c #816848",
"a. c #826848",
"s. c #826949",
"d. c #836A4A",
"f. c #846B4B",
"g. c #836A4A",
"h. c #818181",
"j. c #818182",
"k. c #818282",
"l. c #838383",
"z. c #828283",
"x. c #848484",
"c. c gray52",
"v. c #858586",
"b. c #868686",
"n. c #828282",
"m. c #898989",
"M. c #89898A",
/* pixels */
". . . . . . . . . . . . . . . . . . . . . . . . . . . . . . . . . . . . . . . . . . . . . . . . . . . . . . . . . . . . . . . . ",
". . . . . . y y . . . . . . y . . y y y . . . . . . . y . . . . . . y y . . . y y . . . y y . . . . . . y . . y y y . . . . . . ",
"y y . . y y y y . . y y y y y y y y y y y y y y . y y y y y . y y y y y y y y y y y y y y y . . y y y y y y y y y y y y y y . . ",
"y y y y y y y y y y y y y y y y y y y y y y y y y y y y y y . y y y y y y y y y y y y y y y y y y y y y y y y y u y y y y y y . ",
"y u y u u u u u u y u u u u u y u u p u u u u y y u y u u u y u u u u u u u u p u u u u u u u y u u u u u y u u p u u u y u y y ",
"p p y u p y . . . . . . . . . . . y y . . . . . . . . . . . . . . . . . . . . y y . . . . . . . . . . . . . . y y . . y p p y y ",
"p p u p f . y y y y y y y y y y y y u y y y y y y y y y y y y y y y y y y y y u y y y y y y y y y y y y y y y y u y . y p p u u ",
"h h p h k y p l h p k h h l l h h l l l k l l h p l h l l h p h l h l l h h l l l l l h l l h p k h h l l h h l l l u p h h p u ",
"l Z h l l y h Z l p h l l Z Z l l Z Z Z l l Z h h Z l Z Z l h h l l Z Z l l Z Z Z l l Z Z Z l h Z l B Z l l Z Z Z Z u h l Z h p ",
"B Z l l Z p h Z l l u h Z Z Z l Z Z C Z l p l l l Z l Z Z Z l h p Z Z Z Z Z Z C Z Z u h Z Z l l Z B Z Z l y l Z C Z p l l Z l h ",
"Z Z Z Z C h l C Z Z h l C Z Z Z Z C C C l h Z Z Z C Z Z Z Z Z l h Z C C Z Z Z C C Z h l C C Z Z Z Z Z C Z p Z C C Z h l C Z Z Z ",
"C C Z Z C h Z C Z Z l l C C C Z C C C C Z h C Z Z L Z C C C Z l h Z C C Z Z C C C C l l C C Z Z C C C C L h Z C C C h l C C Z Z ",
"C Y C C Y h Z Y C C l l Y Y Y C Y Y / Y C h C C C Y C Y Y Y Z Z h Y Y Y Y Y Y / Y Y l l Y Y C C Y C Y Y C h C Y / Y l Z Y Y C Z ",
"Y Y C Y Y l Z Y Y C C C Y Y Y Y Y / :.Y Y Z Y Y C Y Y Y Y Y C Z l Y Y Y Y Y Y :./ Y Z C Y Y Y C Y Y Y Y Y Z Y / :.Y l Z Y Y C Z ",
"@.@.Y / @.l Z @./ Y I C @.@.@.Y +.@.@.@.@./ @.Y Y @./ @.@.+.Y C l / :.@./ / @.@.@.@.L Y @.@./ Y @.O./ @.@.C / @.@.@.C C @./ Y Y ",
"~  .A ]  .l D ;.~ A ~ H  .o.;.H  .o.;.;.o.] ;.H H o.Q ;.o. .A F l ~ ;.;.~ ~ ;.;.o.;.] ~ ;.;.~ A  .~  .;.:.Y :.9.8.8.Y / @.:./ / ",
", , , , , ; > , , , , , , , , , , , , , , , , , , , , , , , , , ; , , , , , , , , , , , , , , , , , , , l / h.h.b.b.q.h.q.8.:.8.",
": : : : : # # = : : : : : : : : : : : : : : = : : : : : : : : : : : : : : : : : : : : : : : : : : : = # p C @./ q.q.q.b.q./ @.8.",
": = : : : # # : : : : : : : : : : : : : : : : : : : : : : : : : : : = = : : : : : : : : : : : : : : : % p Z C Y q.q.q.b.q./ C :.",
": : : : : # # : : : : : : : : : : : : : : : : : : : : : : : : : : : = = : : : : : : : : : : : : : : : % p Z h l q.8.8.b.q.Z l :.",
": : : : : # # : : : : : : : : : : : : : : : : : : = = : : : : : : : : = : : : : : : : = = = : : : : : % p Z h l q.@.8.b.:.C Y 9.",
": : : : : # # : : : : : : : : : : = = : : , , , , : : , : : = : : : : = : : , , , , , : : = = : : : : % * u y y h h B F D B B A ",
": : : : : # # : : : : : = : : : : 6 8 0 N N N N N N N N N e 8 , : : , 8 q e N N N N N N 0 8 6 : : : : # # + @ - @ # @ + % 2 % % ",
": : : : : # # : : : : : = = = 6 q N d.d.d.d.d.d.d.d.d.d.f.f.d.N 0 0 N d.d.d.d.d.d.d.d.d.d.d.N q 6 : : : : : % , % # # $ % , % $ ",
": : : : : # # : : : : : : : 8 N d.d.d.d.d.d.d.d.d.d.d.i.e r N f.d.d.f.d.d.d.d.d.d.d.d.d.d.d.d.d.N 8 : : : : % , % # # $ % , % $ ",
": : : : : # # : : : : : : : e d.d.d.d.d.d.d.d.d.d.d.d.N : : 7 8 0 e N N d.d.f.f.d.d.d.d.d.d.d.d.d.e : : = O # , % $ + o # , % $ ",
": : : : : # # : : : : : : , N d.d.d.d.d.d.d.d.d.d.f.d.N , : = = : : : , 8 e e e N d.d.d.d.d.d.d.d.N , : 3 v m V m m b c m V z z ",
": : : : : # # : : : : : : , N d.d.d.d.d.d.d.d.d.d.d.d.N , : = = : : : , 8 e e e N d.d.d.d.d.d.d.d.N , # h q.h.8.h.h.h.b.b.9.8.q.",
": : : : : # # : : : : : : : e d.d.d.d.d.d.d.d.d.d.d.d.N : : 7 8 0 e N N d.d.f.f.d.d.d.d.d.d.d.d.d.e : # p @.@./ 8.8.q.b.q./ :.8.",
": : : : : # # : : : : : : : 8 N d.d.d.d.d.d.d.d.d.d.d.i.e r N f.d.d.f.d.d.d.d.d.d.d.d.d.d.d.d.d.N 8 : % p @.l Z 8.8.:.b.q.Y l =.",
"= : : : : # # : : : : : : : : 6 q N d.d.d.d.d.d.d.d.d.d.f.f.d.N 0 0 N d.d.d.d.d.d.d.d.d.d.d.N q 6 : : % p / p l 9.8.@.m.q.l h :.",
": : : : : + # : : : : : : : : : : 6 8 0 N N N N N N N N N e 8 , : : , 8 e N N N N N N N 0 8 6 : : : : % p Z h l :.:.+.h.@.l l 8.",
": : : : : # # : : : : : : : : : = = = : : , , , , , , , : : = = : : = = : : , , , , : : = = = = : : : % & * & < 1 u a j g j g j ",
": : : : : # # : : : : : : = 6 e e 6 = : : 0 e e : : : : : : : 6 0 e e 8 : : : : : : 8 w e e e e 0 : : $ $ $ # > # # + # # > % # ",
": : : : : # # = = : : : : = 9 f.f.9 = : : e f.y.: = : : : : 8 N N N d.N 8 : : : : 0 d.N N e e e 0 : : : : : % , % # # $ % , % $ ",
": : : : : # # = : : : : : = 8 d.d.8 = : : e f.N : = = = : 6 N d.e 6 N f.e : : = 6 N f.e , = : : : : : : = O # , % # + o # , % $ ",
": : : : : # # = : : : : : = 8 d.d.8 = : = e f.N : = : : : q d.N q y.d.f.e : : = 8 d.d.9 = : : : : : : : 3 x b V m m m m b V z z ",
": : : : : # # : : : : : : = 7 N f.0 : = , r f.N : = : : 6 N d.w , 0 u.f.e : : = 7 N f.0 : = = = = : : # k q.q.2.h.b.b.m.h.8.:.q.",
": : : : : # # : : : : : : : , e f.N 0 9 e N d.0 = : : : w f.N 6 = : N f.e : : : , e f.N 0 8 8 9 6 : : # d :.@./ 8.8.q.b.q./ @.8.",
": : : : : # # : : : : : : : : 6 w N y.y.y.N 0 : : : : : t N 0 : : , N y.e : : : : 6 w N y.y.y.y.e : : % d :.l Z 8.8.:.b.q.Y l @.",
": : : : : # # : : : : : : : : : : : , , , : : = : = : : , , : : : : , , : : : : : : : : , , , , : : : % d / p l 8.8.@.m.q.l h :.",
"O O = O O X # O O = O O O O O O O O O O O O O O O = O O O O O O O O O O O O O O O = = O O O O O O O O # p C h l :.:./ h.@.l l 8.",
"x v x x v 4 s v x x v v v v v v v v v v v v v v v x x v v v v v v v v v v v v v v x x v v v x x v v v b f p u u p h l Z Z Z Z C ",
"b.m.h.l.m./ @.m.l.h.m.b.m.m.m.b.m.m.M.m.m.b.m.m.m.h.b.m.b.m.m.m.b.m.M.M.m.m.b.m.b.q.q.b.m.m.l.h.m.b.m.m.q.:.:.:.:.@.Z / 8.8.:.@.",
"h.h.q.q.b./ @.b.q.q.h.h.h.b.b.h.h.b.b.b.b.h.h.b.b.q.q.b.h.b.b.h.h.b.b.b.b.b.h.b.h.q.q.h.x.b.q.q.h.h.h.b.h.h.h.b.b.h.Y :.b.b.q.q.",
"q.q.8.q.h.Y @.h.q.q.h.h.h.h.h.q.h.h.b.h.h.h.h.h.h.q.q.h.q.h.h.h.q.h.b.b.h.h.q.h.q.q.q.q.h.h.q.q.h.h.h.h.h.q.h.h.b.h.C @.q.q.8.8.",
"q.q.8.8.q./ :.h.q.q.h.h.h.h.h.q.h.h.h.h.h.h.h.h.h.q.q.h.q.h.h.h.q.h.h.h.h.h.q.h.q.q.q.q.h.h.q.q.h.h.h.h.h.q.h.h.h.h./ @.q.q.8.:.",
"8.8.:.:.8.Y l C Z l C C Z C C Z Z C C C C Z Z C C l l C Z C C C Z C C C C C Z C Z l l Z C C l l Z Z Z C C Z C C C C l @.8.8.:.Y ",
"@.:./ @.:.Z @.q.8.8.q.q.q.h.h.h.h.h.h.q.q.q.q.q.h.q.h.b.h.h.q.q.8.q.h.h.h.b.h.h.8.8.8.8.h.b.h.q.h.h.h.q.q.8.q.q.q.q.Y / @.:./ Y ",
"@./ Y Y :.l h Z l l Z Z l Y @.@.@./ Z Z Z l l Z C @.@.@.@.C Z Z l Z C @.@.@.@.C l l l l Z Y @.@.@./ C Z Z l Z Z Z l h C @./ Y Y ",
"Y Y C Y Y l l Y C C Y Y l Z Y Y Y C l Y Y Y Y C l Y Y Y Y l C Y C C l Y Y Y Y l C Z Z Y Z Z Y Y Y C l Y Y C Y Y @.C l Z Y Y C Z ",
"C Y C C Y h Z Y C C Y Y Z h h l l h l Y Y C Y C h h l l h h C Y C C h h l l h h C Z Z Y Z h h l l h l Y Y C Y Y / Y l Z Y Y C Z ",
"C C Z Z C h Z C Z Z C C Z h i Z j i Z C C C C C l u l B u l C C Z C l u l B u l Z Z Z Z C h i Z j i Z C C Z C C C C h l C C Z Z ",
"Z Z Z Z C h l C Z Z Z Z Z B 4 Y n g L Z Z Z Z Z C 4 B D 4 C C Z Z Z C 4 B D 4 C Z Z Z Z C B 4 Y n g Y Z Z Z Z C C Z f l C Z Z Z ",
"l Z l l Z p h Z l l Z l Z B 5 Y M b L Z Z l Z Z C z B D 5 C Z Z l Z C z B D 5 C Z h h Z Z B 5 Y M b L Z Z l Z Z C Z p l B Z l h ",
"l Z h l l y h Z l h Z l l D z Y M n C Z Z l Z Z C z D F z C Z Z l Z C z D F z C l p h l Z D z Y M n L Z Z l Z Z Z Z u h l Z h p ",
"h h p h h y p l h p h h l Z ~ Y / Z Z l h l l l l F / / F Z l h l l Z F / / F Z h u h h l Z ~ Y / Z C l h p h l l l u p h h p u ",
"p p u p p y p h p u y y h l l Z Z l l h u . p h l l Z Z l l h y . h l l Z Z l l h u . y h l l Z Z l l h p   u h l h y u p p u u ",
"p p y u p p C Y C l f l Y l h l l l Y Y l p C Y Z h l l h C Y h h Y Z h l l h C L l y h Y l h l l l / Y l u l Y Y I h u p p y y ",
"y u y y u p l l h h y f l h p p p h l l h p l l l p p p p l l h p l l h p p p h l h y h l h p p p p l l h p l l l l l p y u y y ",
"y y y y y y y y y .   . y y y y y y y y y y y y y y y y y y y y . y y y y y y y y . . . y y y y u y y y y y y y y y y y y y y . ",
"y y . . y y y y . . . . y y y y y y y y y y y y y . y y y y y y . y y y y y y y y . . . y y y y y y y y y y y y y y y y y y . . ",
". . . . . . y y . . . . . . . . . y y y y . . . y . . . . y . . . . y y . y . . . . . . . . . . . . . . y . . y y y . . . . . . ",
". . . . . . . . . . . . . . . . . . . . . . . . . . . . . . . . . . . . . . . . . . . . . . . . . . . . . . . . . . . . . . . . "
};
